HIERARCHY
ROOT Hips
{
	OFFSET 0.000000 0.000000 0.000000
	CHANNELS 6 Xposition Yposition Zposition Zrotation Yrotation Xrotation 
	JOINT LHipJoint
	{
		OFFSET 0.000000 0.000000 0.000000
		CHANNELS 3 Zrotation Yrotation Xrotation
		JOINT LeftUpLeg
		{
			OFFSET 1.363060 -1.794630 0.839290
			CHANNELS 3 Zrotation Yrotation Xrotation
			JOINT LeftLeg
			{
				OFFSET 2.448110 -6.726130 0.000000
				CHANNELS 3 Zrotation Yrotation Xrotation
				JOINT LeftFoot
				{
					OFFSET 2.562200 -7.039590 0.000000
					CHANNELS 3 Zrotation Yrotation Xrotation
					JOINT LeftToeBase
					{
						OFFSET 0.157640 -0.433110 2.322550
						CHANNELS 3 Zrotation Yrotation Xrotation
						End Site
						{
							OFFSET 0.000000 0.000000 0.000000
						}
					}
				}
			}
		}
	}
	JOINT RHipJoint
	{
		OFFSET 0.000000 0.000000 0.000000
		CHANNELS 3 Zrotation Yrotation Xrotation
		JOINT RightUpLeg
		{
			OFFSET -1.305520 -1.794630 0.839290
			CHANNELS 3 Zrotation Yrotation Xrotation
			JOINT RightLeg
			{
				OFFSET -2.542530 -6.985550 0.000000
				CHANNELS 3 Zrotation Yrotation Xrotation
				JOINT RightFoot
				{
					OFFSET -2.568260 -7.056230 0.000000
					CHANNELS 3 Zrotation Yrotation Xrotation
					JOINT RightToeBase
					{
						OFFSET -0.164730 -0.452590 2.363150
						CHANNELS 3 Zrotation Yrotation Xrotation
						End Site
						{
							OFFSET 0.000000 0.000000 0.000000
						}
					}
				}
			}
		}
	}
	JOINT LowerBack
	{
		OFFSET 0.000000 0.000000 0.000000
		CHANNELS 3 Zrotation Yrotation Xrotation
		JOINT Spine
		{
			OFFSET 0.028270 2.035590 -0.193380
			CHANNELS 3 Zrotation Yrotation Xrotation
			JOINT Spine1
			{
				OFFSET 0.056720 2.048850 -0.042750
				CHANNELS 3 Zrotation Yrotation Xrotation
				JOINT Neck
				{
					OFFSET 0.000000 0.000000 0.000000
					CHANNELS 3 Zrotation Yrotation Xrotation
					JOINT Neck1
					{
						OFFSET -0.054170 1.746240 0.172020
						CHANNELS 3 Zrotation Yrotation Xrotation
						JOINT Head
						{
							OFFSET 0.104070 1.761360 -0.123970
							CHANNELS 3 Zrotation Yrotation Xrotation
							End Site
							{
								OFFSET 0.000000 0.000000 0.000000
							}
						}
					}
				}
				JOINT LeftShoulder
				{
					OFFSET 0.000000 0.000000 0.000000
					CHANNELS 3 Zrotation Yrotation Xrotation
					JOINT LeftArm
					{
						OFFSET 3.362410 1.200890 -0.311210
						CHANNELS 3 Zrotation Yrotation Xrotation
						JOINT LeftForeArm
						{
							OFFSET 4.983000 -0.000000 -0.000000
							CHANNELS 3 Zrotation Yrotation Xrotation
							JOINT LeftHand
							{
								OFFSET 3.483560 -0.000000 -0.000000
								CHANNELS 3 Zrotation Yrotation Xrotation
								JOINT LeftFingerBase
								{
									OFFSET 0.000000 0.000000 0.000000
									CHANNELS 3 Zrotation Yrotation Xrotation
									JOINT LeftHandIndex1
									{
										OFFSET 0.715260 -0.000000 -0.000000
										CHANNELS 3 Zrotation Yrotation Xrotation
										End Site
										{
											OFFSET 0.000000 0.000000 0.000000
										}
									}
								}
								JOINT LThumb
								{
									OFFSET 0.000000 0.000000 0.000000
									CHANNELS 3 Zrotation Yrotation Xrotation
									End Site
									{
										OFFSET 0.000000 0.000000 0.000000
									}
								}
							}
						}
					}
				}
				JOINT RightShoulder
				{
					OFFSET 0.000000 0.000000 0.000000
					CHANNELS 3 Zrotation Yrotation Xrotation
					JOINT RightArm
					{
						OFFSET -3.136600 1.374050 -0.404650
						CHANNELS 3 Zrotation Yrotation Xrotation
						JOINT RightForeArm
						{
							OFFSET -5.241900 -0.000000 -0.000000
							CHANNELS 3 Zrotation Yrotation Xrotation
							JOINT RightHand
							{
								OFFSET -3.444170 -0.000000 -0.000000
								CHANNELS 3 Zrotation Yrotation Xrotation
								JOINT RightFingerBase
								{
									OFFSET 0.000000 0.000000 0.000000
									CHANNELS 3 Zrotation Yrotation Xrotation
									JOINT RightHandIndex1
									{
										OFFSET -0.622530 -0.000000 -0.000000
										CHANNELS 3 Zrotation Yrotation Xrotation
										End Site
										{
											OFFSET 0.000000 0.000000 0.000000
										}
									}
								}
								JOINT RThumb
								{
									OFFSET 0.000000 0.000000 0.000000
									CHANNELS 3 Zrotation Yrotation Xrotation
									End Site
									{
										OFFSET 0.000000 0.000000 0.000000
									}
								}
							}
						}
					}
				}
			}
		}
	}
}
MOTION
Frames: 11
Frame Time: 0.008333
3.212215 17.674185 0.216568 -173.792969 89.246107 -174.502387 -0.011676 5.010199 3.314711 -15.192725 -1.819799 -2.876190 0.076232 2.702332 10.850264 0.473754 -4.482174 -0.464051 0.025800 -1.037000 -2.850600 -3.945851 -5.853585 2.638694 21.314117 7.626822 1.366505 0.466088 -2.959779 15.029094 -0.000191 -4.929729 -15.550080 -0.078800 1.811400 -4.984600 5.225638 -0.442113 1.569381 -1.199425 -0.322302 2.550616 -3.965220 -0.306901 -5.727871 -5.910905 -6.233988 -7.862786 8.903100 -8.479957 6.123220 3.529500 -3.949900 2.991100 -3.838723 -0.156733 0.895781 -82.996350 5.695719 22.217170 9.666128 -20.916144 -1.955977 0.428551 1.227333 -31.641843 17.088762 10.168917 2.685600 -7.125000 0.000000 0.000000 -9.468700 39.547400 1.285800 4.019154 -0.141496 0.227817 84.827713 -8.590966 18.111469 -11.960407 24.606178 -2.492024 -0.027363 0.473991 8.802105 -6.334803 11.321062 -1.178900 7.125000 0.000000 0.000000 14.633100 -19.234800 9.301900 
3.212715 17.674485 0.216969 -174.805034 89.255672 -175.504453 0.006661 5.026668 3.318126 -15.219135 -1.814266 -2.838324 0.068102 2.670315 10.759964 0.468651 -4.453841 -0.428496 0.023500 -0.988600 -2.717500 -3.926156 -5.835960 2.634199 21.283487 7.638255 1.311947 0.454210 -2.991806 15.116834 -0.006593 -4.920526 -15.585261 -0.079700 1.821500 -5.012700 5.182376 -0.444707 1.562127 -1.193120 -0.332551 2.556094 -3.926492 -0.307246 -5.712418 -5.901822 -6.221902 -7.936597 8.877188 -8.462142 6.160472 3.516400 -3.939600 3.013800 -3.834633 -0.155349 0.894169 -83.039806 5.704960 22.197701 9.651421 -20.897122 -1.952309 0.439987 1.233285 -31.916756 17.277827 10.029835 2.677700 -7.125000 0.000000 0.000000 -9.296700 39.424600 1.290300 4.011690 -0.137530 0.229924 84.890953 -8.500188 17.576111 -11.865720 24.474846 -2.463674 -0.017443 0.478070 8.970832 -6.183396 11.444443 -1.163900 7.125000 0.000000 0.000000 14.723400 -19.125100 9.400700 
3.213716 17.676886 0.217969 -173.581808 89.233586 -174.292828 -0.015999 5.008096 3.314627 -15.170610 -1.795765 -2.799075 0.063587 2.650256 10.708084 0.466275 -4.430554 -0.432717 0.030600 -1.129900 -3.106400 -3.949630 -5.854597 2.639352 21.336066 7.648506 1.296229 0.445795 -3.012271 15.170092 -0.037626 -4.795374 -15.619689 -0.057300 1.544400 -4.248200 5.173325 -0.447606 1.551767 -1.172743 -0.333951 2.572045 -3.913821 -0.310932 -5.688537 -5.901937 -6.219638 -7.927139 8.876896 -8.457741 6.131590 3.516900 -3.938100 3.000900 -3.833037 -0.159268 0.895888 -83.036105 5.697221 22.305887 9.656740 -20.908003 -1.955561 0.436374 1.252257 -32.266261 17.482113 10.131649 2.737500 -7.125000 0.000000 0.000000 -9.147900 39.532400 1.244700 4.006794 -0.141846 0.230042 84.944257 -8.430621 17.046454 -11.778999 24.352411 -2.437785 -0.014984 0.481547 9.021625 -6.177126 11.537015 -1.172300 7.125000 0.000000 0.000000 14.720100 -19.038800 9.427800 
3.213816 17.678386 0.218569 -171.546727 89.149698 -172.274433 -0.051988 4.976694 3.309741 -15.073172 -1.806120 -2.718621 0.052818 2.604964 10.587004 0.459894 -4.378875 -0.414533 0.038900 -1.273100 -3.500600 -3.988259 -5.887529 2.648279 21.435215 7.622737 1.258272 0.432729 -3.046195 15.259887 -0.065596 -4.687800 -15.660153 -0.061100 1.595100 -4.388000 5.202626 -0.476266 1.566566 -1.156265 -0.362314 2.578376 -3.928659 -0.333291 -5.693246 -5.909862 -6.226495 -7.924297 8.902142 -8.467816 6.120098 3.527200 -3.942300 2.999000 -3.825606 -0.169403 0.894034 -83.075022 5.629872 22.031894 9.542054 -20.749789 -1.924205 0.453037 1.245813 -32.183375 17.522498 9.907638 2.681300 -7.125000 0.000000 0.000000 -9.084000 39.318100 1.284200 3.999359 -0.146415 0.230240 85.036074 -8.381584 16.500293 -11.702303 24.243195 -2.415268 -0.010979 0.483174 9.006735 -6.115097 11.605224 -1.167800 7.125000 0.000000 0.000000 14.755400 -18.976800 9.473100 
3.217817 17.676086 0.217569 -176.784437 89.243511 -177.544778 0.044750 5.064592 3.326801 -15.267598 -1.780776 -2.596100 0.039520 2.557735 10.447331 0.451523 -4.319085 -0.425449 0.045500 -1.376700 -3.786000 -3.887209 -5.805548 2.626477 21.231462 7.609034 1.270060 0.419766 -3.071098 15.343677 -0.059503 -4.743153 -15.705083 -0.099000 2.028600 -5.584600 5.117706 -0.453372 1.554838 -1.198915 -0.354731 2.592783 -3.879994 -0.309801 -5.669007 -5.931381 -6.215787 -7.921129 8.921353 -8.454352 6.128624 3.537800 -3.935300 3.001500 -3.819194 -0.156884 0.886594 -83.130450 5.603382 21.680616 9.425414 -20.588545 -1.892381 0.468038 1.232471 -32.065712 17.477480 9.645534 2.601600 -7.125000 0.000000 0.000000 -9.083100 39.062500 1.341700 3.990904 -0.130523 0.235250 85.079764 -8.345679 16.079308 -11.627665 24.136017 -2.392603 -0.015401 0.486667 8.853136 -6.222634 11.689002 -1.196600 7.125000 0.000000 0.000000 14.677900 -18.894600 9.447800 
3.225719 17.671484 0.214468 175.588013 89.279871 174.780861 0.205593 5.159531 3.332475 -15.557068 -1.786969 -2.413433 0.030322 2.504938 10.317237 0.450189 -4.352770 -0.379407 0.025800 -1.036300 -2.848700 -3.720847 -5.720914 2.618948 20.905548 7.549180 1.285345 0.404732 -3.099110 15.420551 -0.080088 -4.663532 -15.736724 -0.086000 1.891200 -5.205100 5.011410 -0.438665 1.505579 -1.243149 -0.366643 2.615969 -3.788619 -0.293609 -5.616117 -6.000571 -6.209752 -7.921424 8.959405 -8.446851 6.155935 3.562100 -3.931100 3.014800 -3.813580 -0.145743 0.879729 -83.203714 5.619399 21.442000 9.330880 -20.457774 -1.864245 0.486362 1.207036 -32.084979 17.376606 9.213824 2.468600 -7.125000 0.000000 0.000000 -9.102700 38.643700 1.439300 3.981761 -0.117305 0.239272 85.094660 -8.328915 15.653986 -11.558439 24.036611 -2.371754 -0.021504 0.494106 8.781037 -6.397507 11.847286 -1.246100 7.125000 0.000000 0.000000 14.551300 -18.741000 9.412100 
3.229120 17.670884 0.212967 173.613711 89.272300 172.772926 0.249673 5.181361 3.330959 -15.640662 -1.756745 -2.260594 0.016578 2.437016 10.141964 0.437243 -4.290710 -0.270293 0.032500 -1.163100 -3.197600 -3.677720 -5.705679 2.620880 20.817513 7.540423 1.266450 0.390304 -3.137568 15.522071 -0.084471 -4.662801 -15.772703 -0.075800 1.775500 -4.885700 4.983121 -0.441017 1.492682 -1.249428 -0.376783 2.630731 -3.756940 -0.294741 -5.595556 -6.017855 -6.203595 -7.896388 8.943419 -8.436508 6.140556 3.559200 -3.927900 3.003400 -3.802197 -0.147250 0.874280 -83.338110 5.566808 20.747923 9.193400 -20.261553 -1.829833 0.492791 1.197763 -31.602390 17.215462 9.147340 2.425400 -7.125000 0.000000 0.000000 -9.223900 38.566500 1.476500 3.976525 -0.113773 0.240916 85.094613 -8.333978 15.278290 -11.520042 23.982446 -2.361876 -0.016254 0.494971 8.515401 -6.244787 11.919845 -1.224600 7.125000 0.000000 0.000000 14.646200 -18.677900 9.499100 
3.229420 17.671884 0.213067 173.717077 89.259005 172.878312 0.246796 5.182810 3.331964 -15.638488 -1.742892 -2.189470 0.006153 2.388998 10.011360 0.431229 -4.264447 -0.200973 0.030200 -1.122400 -3.085700 -3.681619 -5.706155 2.620055 20.825870 7.540573 1.235203 0.382786 -3.161345 15.587275 -0.073725 -4.731109 -15.804446 -0.095100 1.988800 -5.474800 4.964614 -0.446494 1.477617 -1.236204 -0.386097 2.632161 -3.730092 -0.299101 -5.589454 -6.043257 -6.209286 -7.844317 8.940151 -8.441878 6.096078 3.562900 -3.933200 2.979100 -3.793167 -0.149894 0.870654 -83.435282 5.504695 20.301160 9.085436 -20.108308 -1.803377 0.501202 1.200298 -31.310364 17.223062 9.131685 2.420400 -7.125000 0.000000 0.000000 -9.218300 38.547400 1.479900 3.974779 -0.114120 0.242786 85.091866 -8.308012 14.914375 -11.530126 23.996560 -2.369478 -0.001286 0.483925 8.089814 -5.792677 11.777432 -1.124800 7.125000 0.000000 0.000000 14.952900 -18.823700 9.662000 
3.229821 17.671684 0.213267 171.876925 89.271449 171.030672 0.286041 5.198773 3.328852 -15.706746 -1.702681 -2.093440 -0.005793 2.330760 9.861857 0.421868 -4.209039 -0.155618 0.027700 -1.074000 -2.952500 -3.640970 -5.693640 2.623395 20.757970 7.561096 1.204756 0.372984 -3.188970 15.654912 -0.085405 -4.687883 -15.825074 -0.090400 1.939100 -5.337400 4.901996 -0.441272 1.470209 -1.231702 -0.387291 2.644607 -3.671995 -0.295895 -5.568057 -6.035204 -6.214714 -7.872346 8.909789 -8.448317 6.121933 3.548300 -3.936400 2.991800 -3.786223 -0.151289 0.865813 -83.488070 5.417457 20.035528 8.958180 -19.929881 -1.769198 0.522902 1.189566 -31.153430 17.260492 8.845605 2.347500 -7.125000 0.000000 0.000000 -9.150600 38.273700 1.531000 3.971147 -0.111165 0.245718 85.122801 -8.258825 14.436760 -11.547228 24.016273 -2.379670 0.010241 0.470265 7.953945 -5.473423 11.539751 -1.043600 7.125000 0.000000 0.000000 15.179600 -19.052900 9.738900 
3.231721 17.670284 0.212567 170.771079 89.299512 169.916912 0.310127 5.209743 3.326371 -15.741853 -1.633974 -1.978515 -0.020138 2.256325 9.666496 0.414488 -4.187484 -0.052649 0.025500 -1.030800 -2.833700 -3.617097 -5.686962 2.625917 20.711631 7.601696 1.180752 0.362161 -3.217494 15.725836 -0.102839 -4.609922 -15.831367 -0.077800 1.799500 -4.951900 4.879301 -0.423528 1.445018 -1.229600 -0.368492 2.662697 -3.648559 -0.284433 -5.530033 -6.042411 -6.225399 -7.924581 8.914391 -8.462535 6.149250 3.548600 -3.941600 3.012300 -3.782613 -0.153684 0.863517 -83.496758 5.369359 19.833049 8.878811 -19.817467 -1.747715 0.528135 1.175904 -31.115421 17.164738 8.659452 2.283900 -7.125000 0.000000 0.000000 -9.200600 38.090000 1.581400 3.964899 -0.109923 0.247048 85.166776 -8.191902 13.848260 -11.483714 23.924843 -2.361950 0.017135 0.476553 8.107762 -5.393431 11.709761 -1.043900 7.125000 0.000000 0.000000 15.218600 -18.897500 9.820500 
3.233422 17.673885 0.212367 169.797622 89.288935 168.944465 0.329859 5.216804 3.324377 -15.778710 -1.618385 -1.903624 -0.029116 2.209877 9.546395 0.411415 -4.180725 -0.013933 0.031300 -1.142700 -3.141400 -3.595865 -5.682350 2.628914 20.663180 7.604012 1.150811 0.354060 -3.236677 15.771781 -0.126938 -4.504296 -15.844209 -0.055800 1.524200 -4.192600 4.848520 -0.416673 1.419702 -1.233474 -0.364292 2.661183 -3.631581 -0.280952 -5.516891 -6.038701 -6.225063 -7.919068 8.918584 -8.463421 6.160519 3.549700 -3.941700 3.015900 -3.784483 -0.154176 0.863098 -83.406981 5.372508 19.965409 8.836793 -19.766038 -1.737129 0.503371 1.181065 -31.430621 17.055617 8.828306 2.314400 -7.125000 0.000000 0.000000 -9.307000 38.244600 1.564400 3.960664 -0.109009 0.246374 85.278237 -8.189230 12.969867 -11.451581 23.879031 -2.356275 0.036585 0.485239 8.379694 -5.069083 11.990985 -1.006600 7.125000 0.000000 0.000000 15.409200 -18.646400 10.042500 
